<?xml version="1.0" encoding="utf-8"?>
<!-- Generator: Adobe Illustrator 26.3.1, SVG Export Plug-In . SVG Version: 6.00 Build 0)  -->
<svg version="1.1" id="Layer_1" xmlns="http://www.w3.org/2000/svg" xmlns:xlink="http://www.w3.org/1999/xlink" x="0px" y="0px"
	 viewBox="0 0 405.9 204.7" style="enable-background:new 0 0 405.9 204.7;" xml:space="preserve">
<style type="text/css">
	.st0{fill:#FFFFFF;}
	.st1{fill:#262626;}
	.st2{fill:#3CC6F0;}
</style>
<polygon class="st0" points="365.4,126.9 387.1,102.9 393.1,46.9 145.3,44.6 76.4,50.1 41.7,96.4 75.9,156.3 159.3,165.4 
	284.5,165.2 367.3,165.1 "/>
<g>
	<g>
		<path class="st0" d="M298,113.4h20c3.3,0,6-2.7,6-6V46.9c0-3.3-2.7-6-6-6h-20c-3.3,0-6,2.7-6,6v60.5
			C292,110.7,294.7,113.4,298,113.4z"/>
		<path class="st0" d="M387.1,40.9h-20c-3.3,0-6,2.7-6,6v2.3l-2.8-5.2c-1.1-1.9-3.1-3.1-5.3-3.1h-20c-3.3,0-6,2.7-6,6v60.5
			c0,3.3,2.7,6,6,6h20c3.3,0,6-2.7,6-6v-2.3l2.8,5.2c1.1,1.9,3.1,3.1,5.3,3.1h9c-0.1,0-0.1,0-0.2,0c-1,0.3-2,0.7-2.8,1.2
			c-0.9,0.5-1.7,1.1-2.4,1.9c0,0-0.1,0.1-0.1,0.1c-1-1.8-3-3-5.2-3h-28.7c-3.3,0-6,2.7-6,6v3.5c-4.9-6.1-12.3-9.7-20.2-9.7
			c-14.3,0-26,11.6-26,26c0,3.4,0.7,6.7,1.9,9.7l-14.1-31.6c-1-2.2-3.1-3.5-5.5-3.5h-2.7c15.3-4.9,26.4-19.5,26.4-36.7
			c0-21.2-16.8-38.5-37.5-38.5c-20.7,0-37.5,17.3-37.5,38.5s16.8,38.5,37.5,38.5c0.3,0,0.7,0,1,0c-0.5,0.5-1,1.1-1.3,1.8l-16.2,35.7
			l-5-6.6c3.8-3.3,6.1-8.3,6.1-14.1c0-9.3-6.1-18.6-19.7-18.6h-14.7c5.2-1.8,10-4.9,14.7-9.6c2.1-2.1,2.3-5.3,0.7-7.7l-10.1-14.3
			c-1.1-1.6-2.9-2.6-4.9-2.6c-0.1,0-0.2,0-0.3,0c-2,0.1-3.9,1.2-4.9,3c0,0-2.2,3.5-5.4,3.5c-2.7,0-6.4-3.4-6.4-9
			c0-5.6,3.8-9.1,6.4-9.1c3.3,0,5.8,3,5.8,3v0c1.1,1.4,2.9,2.3,4.7,2.3c0,0,0.1,0,0.1,0c1.9,0,3.6-0.9,4.7-2.4l10.1-13.6
			c1.8-2.4,1.5-5.7-0.6-7.8c-7.5-7.5-15.6-10.8-26.2-10.8c-20.3,0-37.5,17.6-37.5,38.5c0,17,11.4,31.8,26.6,36.7h-23.4
			c-3.3,0-6,2.7-6,6v7.2c0,3.3,2.7,6,6,6h6.5v26.1c0,3.3,2.7,6,6,6h8.7c3.3,0,6-2.7,6-6v-26h6.4c1.1,0,2.2-0.3,3.1-0.9v27
			c0,3.3,2.7,6,6,6h8.7c3.3,0,6-2.7,6-6V158l3.3,4.6c1.1,1.6,3,2.6,4.9,2.6h10.6c1.2,0,2.4-0.4,3.4-1.1c1,0.7,2.1,1,3.3,1h7.9
			c2.3,0,4.4-1.3,5.4-3.4l2.5-5.3h12.2l2.3,5.1c1,2.2,3.1,3.6,5.5,3.6h8.4c2,0,3.9-1,5-2.7c1.1-1.7,1.3-3.9,0.4-5.7l-2.7-5.9
			c4.2,8.6,13.1,14.5,23.3,14.5c7.9,0,15.3-3.6,20.2-9.6v3.5c0,3.3,2.7,6,6,6h30.6c3.3,0,6-2.7,6-6v-7.3c0-2.9-2.1-5.3-4.8-5.9
			c0.3-0.8,0.5-1.6,0.5-2.5v-7.7c0-1.3-0.4-2.5-1.1-3.4c0.4-0.2,0.9-0.5,1.2-0.8c0.4,0.7,0.9,1.3,1.5,1.9c0.7,0.7,1.5,1.4,2.4,1.9
			c0.9,0.5,1.8,0.9,2.8,1.2c1,0.3,2.1,0.4,3.2,0.4c1.1,0,2.2-0.1,3.2-0.4c1-0.3,2-0.7,2.8-1.2c0.9-0.5,1.7-1.1,2.4-1.9
			c0.7-0.7,1.4-1.5,1.9-2.4c0.5-0.9,0.9-1.8,1.2-2.9c0.3-1,0.4-2.1,0.4-3.2c0-1.1-0.1-2.2-0.4-3.2c-0.3-1-0.7-2-1.2-2.9
			c-0.5-0.9-1.1-1.7-1.9-2.4c-0.7-0.7-1.5-1.3-2.4-1.9c-0.9-0.5-1.9-0.9-2.9-1.2c0,0-0.1,0-0.1,0h4.8c3.3,0,6-2.7,6-6V46.9
			C393.1,43.6,390.4,40.9,387.1,40.9z M247.8,77.1c0-4.8,2.7-8.4,5.1-8.4s5.1,3.6,5.1,8.4c0,4.8-2.7,8.4-5.1,8.4
			S247.8,82,247.8,77.1z M195.5,116c-0.1-0.2-0.3-0.3-0.5-0.5c0.3,0,0.7-0.1,1-0.1C195.9,115.6,195.7,115.7,195.5,116z M315.5,142.1
			c-1,1.8-2.8,2.9-4.9,2.9c-3.1,0-5.7-2.6-5.7-5.7c0-3.1,2.6-5.7,5.7-5.7c1.9,0,3.8,1,4.7,2.7c0.9,1.5,2.2,2.5,3.8,2.8
			C317.6,139.6,316.3,140.6,315.5,142.1z M330.7,143.2c-2.1-1-2.8-1.3-4.1-2c-0.7-0.4-1.6-0.9-3-1.6c-0.4-0.2-0.9-0.4-1.3-0.5
			c0.3-0.1,0.6-0.2,0.9-0.3c3.4-1.6,4.1-2,6.5-3.3l1.1-0.6c0,0,0,0,0.1,0L330.7,143.2C330.7,143.2,330.7,143.2,330.7,143.2z"/>
		<path class="st0" d="M157.5,159.2v-14.7c0-2.6-1.6-4.9-4.1-5.7c-5-1.7-8.4-6.4-8.4-11.7V120c0-0.1,0-0.1,0-0.2c0-3.3-2.7-6-6-6
			h-32.8c-3.3,0-6,2.7-6,6l0,18.3l-40.3-34.9l40.3-35v18.3c0,3.3,2.7,6,6,6h36.5c1.8,0,3.5-0.8,4.6-2.2s1.6-3.2,1.2-5
			c-0.6-2.8-0.8-5.6-0.8-8.4c0-12.3,5.3-24.3,14.6-33c1.2-1.2,1.9-2.8,1.9-4.5c0-1.7-0.7-3.3-2-4.4c-16.5-14.7-37.7-22.8-59.6-22.8
			c-2.8,0-5.6,0.1-8.4,0.4C52,16.8,18,50.1,13.3,92.2c-2.8,25.9,5.1,50.8,22.4,70.1c17,19,41.4,29.9,66.9,29.9
			c20.2,0,39.2-6.6,55.2-19c2.4-1.8,3-5.2,1.5-7.8C158.1,163.4,157.5,161.3,157.5,159.2z"/>
	</g>
	<path class="st1" d="M379.2,119c0.5,0,1.1,0.1,1.6,0.2c0.5,0.1,1,0.3,1.4,0.6c0.4,0.3,0.8,0.6,1.2,0.9c0.4,0.4,0.7,0.8,0.9,1.2
		c0.3,0.4,0.5,0.9,0.6,1.4c0.1,0.5,0.2,1.1,0.2,1.6c0,0.5-0.1,1.1-0.2,1.6c-0.1,0.5-0.3,1-0.6,1.4s-0.6,0.8-0.9,1.2
		c-0.4,0.4-0.8,0.7-1.2,0.9c-0.4,0.3-0.9,0.5-1.4,0.6c-0.5,0.1-1,0.2-1.6,0.2c-0.6,0-1.1-0.1-1.6-0.2c-0.5-0.1-1-0.3-1.4-0.6
		c-0.4-0.3-0.8-0.6-1.2-0.9c-0.4-0.4-0.7-0.8-0.9-1.2c-0.3-0.4-0.5-0.9-0.6-1.4c-0.1-0.5-0.2-1.1-0.2-1.6c0-0.5,0.1-1.1,0.2-1.6
		c0.1-0.5,0.3-1,0.6-1.4c0.3-0.4,0.6-0.8,0.9-1.2c0.4-0.4,0.8-0.7,1.2-0.9c0.4-0.3,0.9-0.5,1.4-0.6C378.1,119,378.7,119,379.2,119z
		 M379.2,120.8c-0.4,0-0.8,0-1.1,0.2c-0.4,0.1-0.7,0.2-1,0.4c-0.3,0.2-0.6,0.4-0.8,0.7c-0.3,0.3-0.5,0.5-0.7,0.8s-0.3,0.6-0.4,1
		c-0.1,0.4-0.1,0.7-0.1,1.1c0,0.4,0,0.8,0.1,1.1c0.1,0.4,0.2,0.7,0.4,1c0.2,0.3,0.4,0.6,0.7,0.8c0.3,0.3,0.5,0.5,0.8,0.7
		c0.3,0.2,0.6,0.3,1,0.4c0.4,0.1,0.7,0.1,1.1,0.1c0.6,0,1.1-0.1,1.6-0.3c0.5-0.2,1-0.5,1.3-0.9c0.4-0.4,0.7-0.8,0.9-1.3
		c0.2-0.5,0.3-1,0.3-1.6c0-0.4,0-0.8-0.1-1.1c-0.1-0.4-0.2-0.7-0.4-1c-0.2-0.3-0.4-0.6-0.7-0.8s-0.5-0.5-0.8-0.7
		c-0.3-0.2-0.6-0.3-1-0.4C380,120.8,379.6,120.8,379.2,120.8z M377,122.3c0-0.1,0-0.1,0.1-0.2c0,0,0.1,0,0.1,0h2.8
		c0.3,0,0.5,0.1,0.7,0.2c0.2,0.1,0.4,0.2,0.6,0.4c0.2,0.2,0.3,0.4,0.4,0.6c0.1,0.2,0.1,0.5,0.1,0.7c0,0.4-0.1,0.7-0.2,1
		c-0.2,0.3-0.4,0.5-0.7,0.7l1,2.1c0,0,0,0,0,0c0,0,0,0,0,0c0,0.1-0.1,0.1-0.2,0.1h-1.5c-0.1,0-0.1,0-0.1-0.1l-0.9-1.9h-0.5v1.8
		c0,0.1,0,0.1-0.1,0.1c0,0-0.1,0-0.1,0h-1.4c0,0-0.1,0-0.1,0c0,0-0.1-0.1-0.1-0.1V122.3z M380.1,124c0-0.1,0-0.1,0-0.2
		c0-0.1-0.1-0.1-0.1-0.2c0,0-0.1-0.1-0.2-0.1c-0.1,0-0.1,0-0.2,0h-0.8v1h0.8c0.1,0,0.3,0,0.4-0.1C380,124.2,380.1,124.1,380.1,124z"
		/>
</g>
<g>
	<path class="st1" d="M193,92.2c6.8,0,10.5-6.5,10.5-6.5l10.1,14.3c-6.3,6.3-12.9,9.7-22,9.7c-17.4,0-31.5-15.1-31.5-32.5
		s14.2-32.5,31.5-32.5c9.1,0,15.6,2.7,22,9.1l-10.1,13.6c0,0-4.1-5.3-10.5-5.3c-6.1,0-12.4,6.3-12.4,15.1S186.9,92.2,193,92.2z"/>
	<path class="st1" d="M252.9,44.6c17.4,0,31.5,14.6,31.5,32.5s-14.2,32.5-31.5,32.5S221.4,95,221.4,77.1S235.6,44.6,252.9,44.6z
		 M252.9,91.6c6.1,0,11.1-6.5,11.1-14.4s-5-14.4-11.1-14.4s-11.1,6.5-11.1,14.4S246.8,91.6,252.9,91.6z"/>
	<path class="st1" d="M298,46.9h20v60.5h-20V46.9z"/>
	<path class="st1" d="M353.1,46.9l14.1,25.9V46.9h20v60.5h-20l-14.1-25.9v25.9h-20V46.9H353.1z"/>
</g>
<g>
	<path class="st1" d="M169.9,127.1h-12.5v-7.2H191v7.3h-12.4v32h-8.7V127.1z"/>
	<path class="st1" d="M222.5,144.6l11,14.6H223l-9.9-14.2h-4.2v14.2h-8.7v-39.4h17.8c9.9,0,13.7,6.2,13.7,12.6
		c0,5.3-2.8,10.8-9.4,12.2H222.5z M208.8,126.5v11.9h6.7c4.1,0,7.6-0.9,7.6-6c0-5.1-3.4-5.9-7.6-5.9H208.8z"/>
	<path class="st1" d="M240.3,159.2l17.9-39.3h8.7l17.6,39.3h-8.4l-3.9-8.7h-19.9l-4.1,8.7H240.3z M262.6,127.3l-6.6,15.2h13.1
		L262.6,127.3L262.6,127.3z"/>
	<path class="st1" d="M310.6,159.3c-11,0-20-8.9-20-20c0-10.9,8.9-20,20-20c7.6,0,13.9,4.2,17.3,10.2c-3.4,1.8-3.6,1.9-7.4,3.7
		c-1.9-3.4-5.7-5.7-9.9-5.7c-6.5,0-11.7,5.3-11.7,11.7c0,6.4,5.2,11.7,11.7,11.7c4.4,0,8.3-2.4,10.3-6.1c3.7,1.9,3.9,2.2,7.4,3.8
		C324.8,155,318.3,159.3,310.6,159.3z"/>
	<path class="st1" d="M345.1,151.9h22.2v7.3h-30.6v-39.5h28.7v7.3h-20.3v8.9h18v7.7h-18V151.9z"/>
</g>
<path class="st2" d="M151.5,159.2v-14.7c-7.3-2.4-12.5-9.3-12.5-17.4v-7.2c0,0,0,0,0,0h-32.8v18.4c0,5.1-6,7.8-9.9,4.5l-40.4-35
	c-2.7-2.4-2.7-6.6,0-9l40.4-35c3.9-3.3,9.9-0.6,9.9,4.5v18.4h36.5c-0.6-3.1-1-6.3-1-9.5c0-14.6,6.4-28,16.5-37.3
	c-16.6-14.8-39-23.1-63.5-20.9c-39.2,3.6-71.2,34.9-75.5,74c-5.5,50.5,33.9,93.3,83.3,93.3c19.4,0,37.3-6.7,51.5-17.8
	C152.5,165.7,151.5,162.6,151.5,159.2z"/>
</svg>
